<svg id="Group_692" data-name="Group 692" xmlns="http://www.w3.org/2000/svg" width="71.19" height="47.228" viewBox="0 0 71.19 47.228">
  <rect id="Rectangle_1804" data-name="Rectangle 1804" width="71.19" height="47.228" fill="#0249a6"/>
  <g id="Group_691" data-name="Group 691" transform="translate(17.937 5.758)">
    <path id="Path_920" data-name="Path 920" d="M86.138,55.02l.6,1.774,1.826,0-1.3.981.356,1.9L86.138,58.6l-1.49,1.051.361-1.875-1.282-.987H85.55Z" transform="translate(-68.496 -24.207)" fill="#f6ec25"/>
    <path id="Path_921" data-name="Path 921" d="M86.138,39l.6,1.774,1.826,0-1.3.981.356,1.9-1.485-1.08-1.49,1.051.361-1.875-1.282-.987H85.55Z" transform="translate(-68.496 -39.001)" fill="#f6ec25"/>
    <path id="Path_922" data-name="Path 922" d="M90,40.031l.6,1.774,1.826,0-1.3.981.356,1.9L90,43.607l-1.49,1.051.361-1.875L87.585,41.8h1.823Z" transform="translate(-64.932 -38.049)" fill="#f6ec25"/>
    <path id="Path_923" data-name="Path 923" d="M82.093,40.031l.6,1.774,1.826,0-1.3.981.356,1.9-1.485-1.08L80.6,44.658l.361-1.875L79.681,41.8H81.5Z" transform="translate(-72.231 -38.049)" fill="#f6ec25"/>
    <path id="Path_924" data-name="Path 924" d="M90,53.938l.6,1.774,1.826,0-1.3.981.356,1.9L90,57.514l-1.49,1.051.361-1.875L87.585,55.7h1.823Z" transform="translate(-64.932 -25.206)" fill="#f6ec25"/>
    <path id="Path_925" data-name="Path 925" d="M82.093,53.938l.6,1.774,1.826,0-1.3.981.356,1.9-1.485-1.08L80.6,58.566l.361-1.875L79.681,55.7H81.5Z" transform="translate(-72.231 -25.206)" fill="#f6ec25"/>
    <path id="Path_926" data-name="Path 926" d="M79.137,43.054l.6,1.774,1.826,0-1.3.981.356,1.9-1.485-1.08-1.49,1.051.361-1.875-1.282-.987H78.55Z" transform="translate(-74.96 -35.257)" fill="#f6ec25"/>
    <path id="Path_927" data-name="Path 927" d="M93.048,43.054l.6,1.774,1.826,0-1.3.981.356,1.9-1.485-1.08-1.49,1.051.361-1.875-1.282-.987H92.46Z" transform="translate(-62.114 -35.257)" fill="#f6ec25"/>
    <path id="Path_928" data-name="Path 928" d="M79.137,51.049l.6,1.774,1.826,0-1.3.981.356,1.9-1.485-1.08-1.49,1.051.361-1.875-1.282-.987H78.55Z" transform="translate(-74.96 -27.874)" fill="#f6ec25"/>
    <path id="Path_929" data-name="Path 929" d="M93.048,51.049l.6,1.774,1.826,0-1.3.981.356,1.9-1.485-1.08-1.49,1.051.361-1.875-1.282-.987H92.46Z" transform="translate(-62.114 -27.874)" fill="#f6ec25"/>
    <path id="Path_930" data-name="Path 930" d="M78.219,47.022l.6,1.774,1.826,0-1.3.981.356,1.9L78.219,50.6l-1.49,1.051.361-1.875-1.282-.987h1.824Z" transform="translate(-75.808 -31.593)" fill="#f6ec25"/>
    <path id="Path_931" data-name="Path 931" d="M94.066,47.022l.6,1.774,1.826,0-1.3.981.356,1.9L94.066,50.6l-1.49,1.051.361-1.875-1.282-.987h1.823Z" transform="translate(-61.174 -31.593)" fill="#f6ec25"/>
  </g>
</svg>
